<svg id="svg" version="1.1" xmlns="http://www.w3.org/2000/svg" xmlns:xlink="http://www.w3.org/1999/xlink" width="400" height="351.26903553299496" viewBox="0, 0, 400,351.26903553299496"><g id="svgg"><path id="path0" d="M334.946 127.540 C 331.541 130.377,321.894 139.759,319.169 142.882 C 318.326 143.849,316.904 145.431,316.008 146.397 C 309.506 153.412,297.097 170.094,291.891 178.817 C 291.518 179.442,290.188 181.656,288.935 183.738 C 286.176 188.322,285.905 188.823,281.319 197.835 C 279.317 201.768,277.677 205.169,277.672 205.393 C 277.668 205.616,277.355 206.195,276.977 206.678 C 276.599 207.162,276.286 207.810,276.282 208.118 C 276.278 208.427,276.054 209.139,275.785 209.700 C 275.516 210.261,275.065 211.274,274.782 211.951 C 274.500 212.627,273.934 213.972,273.525 214.938 C 272.768 216.727,271.004 221.531,269.588 225.659 C 269.157 226.916,268.686 228.102,268.543 228.295 C 268.399 228.489,268.175 229.240,268.044 229.965 C 267.865 230.957,267.637 231.283,267.119 231.283 C 266.404 231.283,266.172 232.135,266.784 232.513 C 266.977 232.633,267.135 233.354,267.135 234.116 C 267.135 234.878,266.977 235.501,266.784 235.501 C 266.591 235.501,266.432 236.054,266.432 236.731 C 266.432 237.408,266.306 237.961,266.153 237.961 C 265.999 237.961,265.834 238.554,265.786 239.279 C 265.738 240.004,265.547 240.650,265.362 240.715 C 265.178 240.779,265.026 241.293,265.026 241.857 C 265.026 242.421,264.883 242.882,264.709 242.882 C 264.534 242.882,264.301 243.634,264.191 244.552 C 263.690 248.730,263.528 249.561,263.213 249.561 C 263.027 249.561,262.974 249.719,263.093 249.912 C 263.213 250.105,263.077 250.264,262.792 250.264 C 262.506 250.264,262.209 250.455,262.131 250.690 C 261.948 251.240,259.402 248.722,259.402 247.991 C 259.402 247.694,259.227 247.452,259.013 247.452 C 258.799 247.452,258.718 247.208,258.832 246.911 C 258.949 246.606,258.816 246.285,258.527 246.174 C 258.245 246.066,257.597 245.123,257.086 244.078 C 256.575 243.034,256.017 242.179,255.846 242.179 C 255.676 242.179,255.536 241.926,255.536 241.617 C 255.536 241.308,255.062 240.612,254.482 240.070 C 253.902 239.529,253.427 238.913,253.427 238.702 C 253.427 238.491,253.111 238.121,252.724 237.880 C 252.337 237.638,252.021 237.197,252.021 236.900 C 252.021 236.602,251.705 236.131,251.318 235.852 C 250.931 235.574,250.615 235.064,250.615 234.720 C 250.615 234.376,250.496 234.094,250.351 234.094 C 250.207 234.093,249.772 233.619,249.385 233.040 C 248.998 232.462,248.495 231.988,248.266 231.987 C 248.038 231.986,247.739 231.630,247.604 231.195 C 247.468 230.760,246.903 229.968,246.350 229.435 C 245.796 228.901,245.343 228.346,245.343 228.201 C 245.343 228.056,245.026 227.740,244.640 227.498 C 244.253 227.257,243.937 226.823,243.937 226.535 C 243.937 226.246,243.779 226.011,243.585 226.011 C 243.392 226.011,243.234 225.615,243.234 225.132 C 243.234 224.543,243.039 224.253,242.643 224.253 C 242.317 224.253,239.747 221.994,236.931 219.232 C 234.114 216.471,230.228 212.958,228.295 211.426 C 226.362 209.895,224.701 208.548,224.605 208.434 C 224.508 208.320,223.875 207.846,223.199 207.381 C 222.522 206.917,221.889 206.445,221.793 206.333 C 221.627 206.142,215.795 202.015,213.567 200.512 C 204.931 194.688,187.403 185.589,184.820 185.589 C 180.513 185.589,179.984 190.940,184.104 192.823 C 185.211 193.329,187.698 194.461,189.631 195.339 C 191.564 196.217,193.304 197.049,193.497 197.188 C 193.691 197.327,195.114 198.123,196.661 198.956 C 199.298 200.377,200.469 201.020,202.500 202.164 C 203.988 203.002,214.581 209.919,214.763 210.171 C 214.859 210.306,215.729 210.954,216.696 211.611 C 223.420 216.186,238.313 230.267,238.313 232.049 C 238.313 232.468,238.572 232.689,239.063 232.689 C 239.752 232.689,241.475 234.262,241.476 234.892 C 241.476 235.040,242.153 235.831,242.981 236.649 C 243.809 237.468,244.705 238.572,244.974 239.104 C 245.242 239.635,245.593 240.070,245.754 240.070 C 245.914 240.070,246.047 240.347,246.049 240.685 C 246.051 241.024,246.525 241.674,247.103 242.131 C 247.682 242.588,248.155 243.192,248.155 243.474 C 248.155 243.756,248.392 244.224,248.682 244.514 C 248.972 244.804,249.209 244.940,249.209 244.815 C 249.209 244.691,249.446 244.827,249.736 245.117 C 250.026 245.407,250.264 245.868,250.264 246.142 C 250.264 246.416,250.569 246.916,250.943 247.254 C 251.317 247.593,251.545 248.071,251.450 248.318 C 251.355 248.565,251.534 248.865,251.847 248.986 C 252.161 249.106,252.314 249.372,252.187 249.577 C 252.060 249.782,252.287 250.236,252.692 250.587 C 253.096 250.938,253.427 251.483,253.427 251.799 C 253.427 252.114,253.585 252.373,253.779 252.373 C 253.972 252.373,254.130 252.609,254.130 252.897 C 254.130 253.185,254.446 253.619,254.833 253.860 C 255.220 254.102,255.536 254.577,255.536 254.918 C 255.536 255.258,255.694 255.536,255.888 255.536 C 256.081 255.536,256.239 255.852,256.239 256.239 C 256.239 256.626,256.397 256.942,256.591 256.942 C 256.784 256.942,256.942 257.258,256.942 257.645 C 256.942 258.032,257.100 258.348,257.293 258.348 C 257.487 258.348,257.645 258.664,257.645 259.051 C 257.645 259.438,257.765 259.754,257.911 259.754 C 258.057 259.754,258.386 260.268,258.642 260.896 C 258.898 261.525,259.411 262.614,259.782 263.317 C 260.600 264.866,260.653 267.143,259.904 268.591 C 259.502 269.369,259.382 270.418,259.465 272.441 C 259.527 273.970,259.460 275.221,259.315 275.221 C 259.170 275.220,259.051 276.621,259.051 278.334 L 259.051 281.448 261.039 281.653 C 264.315 281.991,265.026 281.714,265.026 280.097 C 265.026 279.348,265.185 278.735,265.378 278.735 C 265.586 278.735,265.729 277.446,265.729 275.571 C 265.729 273.697,265.873 272.408,266.081 272.408 C 266.278 272.408,266.432 271.435,266.432 270.193 C 266.432 268.975,266.578 267.829,266.756 267.645 C 266.935 267.461,267.147 266.204,267.229 264.851 C 267.310 263.497,267.482 261.995,267.612 261.511 C 267.741 261.028,267.947 259.486,268.070 258.084 C 268.193 256.683,268.428 255.536,268.593 255.536 C 268.758 255.536,268.893 254.675,268.893 253.624 C 268.893 252.572,269.051 251.613,269.244 251.494 C 269.438 251.374,269.596 250.732,269.596 250.067 C 269.596 249.402,269.754 248.858,269.947 248.858 C 270.141 248.858,270.299 248.383,270.299 247.803 C 270.299 247.223,270.457 246.749,270.650 246.749 C 270.844 246.749,271.002 246.037,271.002 245.167 C 271.002 244.297,271.160 243.585,271.353 243.585 C 271.547 243.585,271.705 243.278,271.705 242.902 C 271.705 242.526,272.012 242.004,272.387 241.741 C 272.870 241.403,273.066 240.859,273.059 239.876 C 273.049 238.553,274.257 234.322,276.163 228.998 C 276.648 227.645,277.122 226.221,277.216 225.835 C 277.310 225.448,277.553 224.736,277.757 224.253 C 277.960 223.770,278.281 222.979,278.471 222.496 C 278.661 222.012,278.956 221.342,279.127 221.007 C 279.298 220.671,279.438 220.162,279.438 219.875 C 279.438 219.588,279.754 218.790,280.141 218.102 C 280.527 217.414,280.844 216.682,280.844 216.476 C 280.844 216.270,281.370 214.970,282.013 213.587 C 282.656 212.204,283.880 209.490,284.734 207.557 C 285.587 205.624,286.741 203.172,287.299 202.109 C 287.856 201.046,289.191 198.436,290.266 196.309 C 293.246 190.413,303.636 173.391,304.749 172.583 C 304.882 172.487,305.185 172.040,305.422 171.590 C 305.992 170.508,313.026 161.242,316.140 157.469 C 323.361 148.724,331.913 139.856,340.336 132.382 C 343.550 129.530,344.025 127.761,342.114 125.766 C 340.346 123.921,338.842 124.294,334.946 127.540 " stroke="none" fill="#849f2e" fill-rule="evenodd"></path><path id="path1" d="M210.193 275.571 C 210.193 275.766,209.256 275.923,208.084 275.923 C 206.913 275.923,205.975 276.079,205.975 276.274 C 205.975 276.467,205.422 276.626,204.745 276.626 C 204.069 276.626,203.515 276.784,203.515 276.977 C 203.515 277.170,202.882 277.329,202.109 277.329 C 201.336 277.329,200.703 277.487,200.703 277.680 C 200.703 277.873,200.228 278.032,199.649 278.032 C 199.069 278.032,198.594 278.190,198.594 278.383 C 198.594 278.576,198.278 278.735,197.891 278.735 C 197.504 278.735,197.188 278.893,197.188 279.086 C 197.188 279.279,196.862 279.438,196.464 279.438 C 196.066 279.438,195.838 279.596,195.958 279.789 C 196.077 279.982,195.849 280.141,195.451 280.141 C 195.053 280.141,194.728 280.299,194.728 280.492 C 194.728 280.685,194.411 280.844,194.025 280.844 C 193.638 280.844,193.322 281.002,193.322 281.195 C 193.322 281.388,193.078 281.547,192.780 281.547 C 192.272 281.547,191.917 281.771,190.698 282.865 C 190.429 283.106,189.999 283.311,189.744 283.320 C 189.488 283.329,188.726 283.969,188.049 284.742 C 187.373 285.515,186.147 286.848,185.325 287.704 C 184.504 288.561,183.831 289.439,183.831 289.656 C 183.831 289.874,183.357 290.495,182.777 291.037 C 182.197 291.579,181.722 292.284,181.722 292.605 C 181.722 292.925,181.564 293.090,181.371 292.970 C 181.178 292.851,181.019 292.968,181.019 293.231 C 181.019 293.894,180.198 295.600,179.877 295.604 C 179.732 295.605,179.613 295.842,179.613 296.131 C 179.613 297.693,178.201 298.418,175.156 298.418 C 173.441 298.418,172.232 298.564,172.232 298.770 C 172.232 298.963,171.441 299.121,170.475 299.121 C 169.508 299.121,168.717 299.279,168.717 299.473 C 168.717 299.666,168.005 299.824,167.135 299.824 C 166.265 299.824,165.554 299.963,165.554 300.132 C 165.554 300.407,163.944 300.942,162.854 301.030 C 162.626 301.048,162.323 301.180,162.181 301.323 C 162.038 301.465,161.552 301.582,161.101 301.582 C 160.650 301.582,160.281 301.740,160.281 301.933 C 160.281 302.127,159.965 302.285,159.578 302.285 C 159.192 302.285,158.875 302.443,158.875 302.636 C 158.875 302.830,158.559 302.988,158.172 302.988 C 157.786 302.988,157.469 303.146,157.469 303.339 C 157.469 303.533,157.153 303.691,156.766 303.691 C 156.380 303.691,156.063 303.849,156.063 304.042 C 156.063 304.236,155.782 304.394,155.438 304.394 C 155.094 304.394,154.584 304.710,154.306 305.097 C 154.027 305.483,153.553 305.800,153.251 305.800 C 152.950 305.800,152.476 306.116,152.197 306.503 C 151.918 306.889,151.382 307.206,151.006 307.206 C 150.630 307.206,150.418 307.301,150.535 307.419 C 150.800 307.683,149.206 309.315,148.683 309.315 C 148.220 309.315,147.841 309.624,145.152 312.195 C 144.000 313.296,143.058 314.372,143.058 314.587 C 143.058 314.801,142.583 315.482,142.003 316.100 C 141.423 316.718,141.013 317.396,141.092 317.608 C 141.172 317.820,140.935 318.210,140.566 318.476 C 140.197 318.742,139.895 319.161,139.895 319.407 C 139.895 319.652,139.578 320.051,139.192 320.292 C 138.805 320.534,138.489 321.010,138.489 321.350 C 138.489 321.690,138.330 321.968,138.137 321.968 C 137.944 321.968,137.786 322.174,137.786 322.426 C 137.786 323.072,136.959 324.774,136.643 324.778 C 136.498 324.779,136.380 325.097,136.380 325.483 C 136.380 325.870,136.221 326.186,136.028 326.186 C 135.835 326.186,135.677 326.661,135.677 327.241 C 135.677 327.821,135.518 328.295,135.325 328.295 C 135.132 328.295,134.974 328.691,134.974 329.174 C 134.974 329.657,134.815 330.053,134.622 330.053 C 134.429 330.053,134.271 330.518,134.271 331.086 C 134.271 331.655,134.112 332.218,133.919 332.337 C 133.726 332.457,133.568 333.090,133.568 333.743 C 133.568 334.397,133.409 335.030,133.216 335.149 C 133.023 335.269,132.865 336.139,132.865 337.083 C 132.865 338.026,132.723 338.886,132.550 338.993 C 132.107 339.267,132.185 343.104,132.649 343.847 C 133.185 344.707,388.094 344.821,388.953 343.962 C 389.552 343.363,389.691 336.380,389.104 336.380 C 388.910 336.380,388.752 335.747,388.752 334.974 C 388.752 334.200,388.594 333.568,388.401 333.568 C 388.207 333.568,388.049 332.935,388.049 332.162 C 388.049 331.388,387.891 330.756,387.698 330.756 C 387.504 330.756,387.346 330.294,387.346 329.731 C 387.346 329.167,387.178 328.649,386.972 328.581 C 386.766 328.512,386.508 327.787,386.399 326.970 C 386.289 326.152,386.062 325.483,385.894 325.483 C 385.726 325.483,385.589 325.167,385.589 324.780 C 385.589 324.394,385.431 324.077,385.237 324.077 C 385.044 324.077,384.886 323.761,384.886 323.374 C 384.886 322.988,384.728 322.671,384.534 322.671 C 384.341 322.671,384.183 322.355,384.183 321.968 C 384.183 321.582,384.025 321.265,383.831 321.265 C 383.638 321.265,383.480 321.063,383.480 320.816 C 383.480 320.568,383.163 320.138,382.777 319.859 C 382.390 319.581,382.074 319.135,382.074 318.868 C 382.074 318.602,381.599 317.941,381.019 317.399 C 380.439 316.857,379.965 316.230,379.965 316.004 C 379.965 315.470,372.404 307.909,371.869 307.909 C 371.644 307.909,371.016 307.434,370.475 306.854 C 369.933 306.274,369.237 305.800,368.928 305.800 C 368.618 305.800,368.366 305.641,368.366 305.448 C 368.366 305.255,368.163 305.097,367.916 305.097 C 367.669 305.097,367.238 304.780,366.960 304.394 C 366.681 304.007,366.181 303.691,365.848 303.691 C 365.516 303.691,365.146 303.533,365.026 303.339 C 364.907 303.146,364.458 302.988,364.029 302.988 C 363.600 302.988,363.020 302.671,362.742 302.285 C 362.444 301.872,361.832 301.582,361.258 301.582 C 360.721 301.582,360.281 301.413,360.281 301.207 C 360.281 300.997,359.984 300.926,359.608 301.045 C 359.237 301.163,358.833 301.094,358.708 300.893 C 358.584 300.692,358.175 300.527,357.800 300.527 C 357.425 300.527,357.118 300.369,357.118 300.176 C 357.118 299.980,356.180 299.824,355.009 299.824 C 353.837 299.824,352.900 299.668,352.900 299.473 C 352.900 299.279,352.267 299.121,351.494 299.121 C 350.721 299.121,350.088 298.963,350.088 298.770 C 350.088 298.560,348.740 298.418,346.749 298.418 C 344.757 298.418,343.409 298.276,343.409 298.067 C 343.409 297.873,342.926 297.715,342.334 297.715 C 341.707 297.715,341.350 297.862,341.476 298.067 C 341.616 298.292,340.425 298.418,338.158 298.418 C 336.035 298.418,334.622 298.559,334.622 298.770 C 334.622 298.963,334.069 299.121,333.392 299.121 C 332.715 299.121,332.162 299.279,332.162 299.473 C 332.162 300.636,327.533 299.820,326.186 298.418 C 325.443 297.645,324.621 297.012,324.358 297.012 C 324.096 297.012,323.653 296.696,323.374 296.309 C 323.096 295.923,322.507 295.606,322.067 295.606 C 321.626 295.606,321.265 295.448,321.265 295.255 C 321.265 295.062,320.949 294.903,320.562 294.903 C 320.176 294.903,319.859 294.745,319.859 294.552 C 319.859 294.359,319.385 294.200,318.805 294.200 C 318.225 294.200,317.750 294.042,317.750 293.849 C 317.750 293.654,316.813 293.497,315.641 293.497 C 314.355 293.497,313.533 293.348,313.533 293.115 C 313.533 292.857,312.816 292.801,311.336 292.945 C 310.127 293.062,308.111 293.250,306.854 293.362 C 305.598 293.473,304.490 293.668,304.394 293.795 C 304.005 294.303,302.596 294.903,301.792 294.903 C 301.322 294.903,300.845 295.101,300.732 295.343 C 300.568 295.694,300.486 295.694,300.322 295.343 C 300.209 295.101,299.849 294.903,299.521 294.903 C 299.193 294.903,298.697 294.587,298.418 294.200 C 298.140 293.814,297.665 293.497,297.364 293.497 C 297.063 293.497,296.583 293.173,296.299 292.777 C 295.773 292.045,294.063 291.037,293.345 291.037 C 293.128 291.037,292.722 290.721,292.443 290.334 C 292.145 289.921,291.533 289.631,290.959 289.631 C 290.422 289.631,289.982 289.473,289.982 289.279 C 289.982 289.086,289.701 288.928,289.357 288.928 C 289.013 288.928,288.504 288.612,288.225 288.225 C 287.896 287.768,287.315 287.522,286.566 287.522 C 285.932 287.522,285.413 287.364,285.413 287.170 C 285.413 286.977,285.097 286.819,284.710 286.819 C 284.323 286.819,284.007 286.661,284.007 286.467 C 284.007 286.274,283.691 286.116,283.304 286.116 C 282.917 286.116,282.601 285.958,282.601 285.764 C 282.601 285.571,281.968 285.413,281.195 285.413 C 280.422 285.413,279.789 285.255,279.789 285.062 C 279.789 284.868,279.315 284.710,278.735 284.710 C 278.155 284.710,277.680 284.552,277.680 284.359 C 277.680 284.165,277.136 284.007,276.471 284.007 C 275.805 284.007,275.163 283.849,275.044 283.656 C 274.924 283.462,273.808 283.304,272.563 283.304 C 271.288 283.304,270.299 283.150,270.299 282.953 C 270.299 282.759,270.180 282.620,270.035 282.643 C 268.882 282.825,266.395 282.514,266.018 282.141 C 265.711 281.838,264.495 281.671,262.433 281.650 C 260.256 281.628,259.226 281.478,259.026 281.154 C 258.806 280.798,258.564 280.892,257.987 281.558 C 257.203 282.463,257.445 282.417,249.385 283.167 C 248.225 283.275,247.126 283.508,246.942 283.685 C 246.758 283.862,246.254 284.007,245.820 284.007 C 245.387 284.007,244.935 284.165,244.815 284.359 C 244.696 284.552,244.133 284.710,243.564 284.710 C 242.996 284.710,242.531 284.868,242.531 285.062 C 242.531 285.808,240.900 285.363,239.951 284.359 C 239.404 283.779,238.770 283.304,238.543 283.304 C 238.316 283.304,237.703 282.909,237.182 282.425 C 236.661 281.942,235.990 281.547,235.692 281.547 C 235.394 281.547,235.149 281.388,235.149 281.195 C 235.149 281.002,234.868 280.844,234.524 280.844 C 234.180 280.844,233.671 280.527,233.392 280.141 C 233.113 279.754,232.525 279.438,232.084 279.438 C 231.643 279.438,231.283 279.279,231.283 279.086 C 231.283 278.893,230.967 278.735,230.580 278.735 C 230.193 278.735,229.877 278.576,229.877 278.383 C 229.877 278.190,229.402 278.032,228.822 278.032 C 228.243 278.032,227.768 277.873,227.768 277.680 C 227.768 277.487,227.135 277.329,226.362 277.329 C 225.589 277.329,224.956 277.170,224.956 276.977 C 224.956 276.784,224.482 276.626,223.902 276.626 C 223.322 276.626,222.847 276.467,222.847 276.274 C 222.847 276.081,221.977 275.923,220.914 275.923 C 219.851 275.923,218.981 275.764,218.981 275.571 C 218.981 275.356,217.282 275.220,214.587 275.220 C 211.892 275.220,210.193 275.356,210.193 275.571 " stroke="none" fill="#9b6c44" fill-rule="evenodd"></path><path id="path2" d="M147.979 10.896 C 147.979 11.105,146.690 11.248,144.815 11.248 C 142.941 11.248,141.652 11.391,141.652 11.599 C 141.652 11.798,140.656 11.951,139.367 11.951 C 138.079 11.951,137.083 12.104,137.083 12.302 C 137.083 12.498,136.145 12.654,134.974 12.654 C 133.802 12.654,132.865 12.810,132.865 13.005 C 132.865 13.199,132.153 13.357,131.283 13.357 C 130.413 13.357,129.701 13.492,129.701 13.657 C 129.701 13.823,128.570 14.053,127.186 14.169 C 125.803 14.285,124.506 14.545,124.304 14.747 C 124.102 14.949,123.415 15.114,122.777 15.114 C 122.139 15.114,121.617 15.272,121.617 15.466 C 121.617 15.659,121.142 15.817,120.562 15.817 C 119.982 15.817,119.508 15.975,119.508 16.169 C 119.508 16.362,118.875 16.520,118.102 16.520 C 117.329 16.520,116.696 16.678,116.696 16.872 C 116.696 17.065,116.221 17.223,115.641 17.223 C 115.062 17.223,114.587 17.381,114.587 17.575 C 114.587 17.768,114.192 17.926,113.708 17.926 C 113.225 17.926,112.830 18.084,112.830 18.278 C 112.830 18.471,112.355 18.629,111.775 18.629 C 111.195 18.629,110.721 18.787,110.721 18.981 C 110.721 19.174,110.246 19.332,109.666 19.332 C 109.086 19.332,108.612 19.490,108.612 19.684 C 108.612 19.877,108.295 20.035,107.909 20.035 C 107.522 20.035,107.206 20.193,107.206 20.387 C 107.206 20.580,106.889 20.738,106.503 20.738 C 106.116 20.738,105.800 20.896,105.800 21.090 C 105.800 21.283,105.404 21.441,104.921 21.441 C 104.438 21.441,104.042 21.599,104.042 21.793 C 104.042 21.986,103.726 22.144,103.339 22.144 C 102.953 22.144,102.636 22.302,102.636 22.496 C 102.636 22.689,102.246 22.847,101.769 22.847 C 100.784 22.847,98.418 23.885,98.418 24.318 C 98.418 24.476,98.133 24.605,97.785 24.605 C 97.000 24.605,95.261 25.390,95.258 25.747 C 95.256 25.892,94.938 26.011,94.552 26.011 C 94.165 26.011,93.849 26.169,93.849 26.362 C 93.849 26.555,93.533 26.714,93.146 26.714 C 92.759 26.714,92.443 26.872,92.443 27.065 C 92.443 27.258,92.127 27.417,91.740 27.417 C 91.353 27.417,91.037 27.575,91.037 27.768 C 91.037 27.961,90.755 28.120,90.412 28.120 C 90.068 28.120,89.558 28.436,89.279 28.822 C 89.001 29.209,88.526 29.525,88.225 29.525 C 87.924 29.525,87.449 29.842,87.170 30.228 C 86.892 30.615,86.461 30.931,86.214 30.931 C 85.967 30.931,85.764 31.090,85.764 31.283 C 85.764 31.476,85.448 31.634,85.062 31.634 C 84.675 31.634,84.359 31.793,84.359 31.986 C 84.359 32.179,84.053 32.337,83.681 32.337 C 83.308 32.337,82.766 32.575,82.476 32.865 C 82.186 33.155,81.735 33.392,81.474 33.392 C 81.212 33.392,80.771 33.708,80.492 34.095 C 80.213 34.482,79.744 34.799,79.448 34.801 C 79.152 34.803,78.537 35.277,78.080 35.856 C 77.623 36.434,77.065 36.907,76.839 36.907 C 76.614 36.907,76.201 37.223,75.923 37.610 C 75.644 37.996,75.198 38.313,74.932 38.313 C 74.665 38.313,74.004 38.787,73.462 39.367 C 72.920 39.947,72.296 40.422,72.075 40.422 C 71.854 40.422,71.277 40.817,70.794 41.301 C 70.311 41.784,69.733 42.179,69.510 42.179 C 69.287 42.179,68.362 42.970,67.454 43.937 C 66.547 44.903,65.627 45.694,65.409 45.694 C 64.915 45.694,52.373 58.208,52.373 58.702 C 52.373 58.900,51.661 59.745,50.791 60.578 C 49.921 61.412,49.209 62.292,49.209 62.533 C 49.209 62.775,48.576 63.580,47.803 64.323 C 47.030 65.066,46.397 65.889,46.397 66.151 C 46.397 66.414,46.081 66.857,45.694 67.135 C 45.308 67.414,44.990 67.884,44.988 68.180 C 44.986 68.475,44.512 69.091,43.934 69.547 C 43.355 70.004,42.882 70.525,42.882 70.705 C 42.882 70.885,42.487 71.459,42.004 71.980 C 41.520 72.501,41.125 73.171,41.125 73.469 C 41.125 73.767,40.808 74.238,40.422 74.517 C 40.035 74.795,39.719 75.270,39.719 75.571 C 39.719 75.872,39.402 76.347,39.016 76.626 C 38.629 76.904,38.313 77.414,38.313 77.758 C 38.313 78.102,38.155 78.383,37.961 78.383 C 37.768 78.383,37.610 78.620,37.610 78.910 C 37.610 79.200,37.452 79.438,37.258 79.438 C 37.065 79.438,36.907 79.754,36.907 80.141 C 36.907 80.527,36.749 80.844,36.555 80.844 C 36.362 80.844,36.204 81.125,36.204 81.469 C 36.204 81.813,35.888 82.322,35.501 82.601 C 35.114 82.880,34.798 83.354,34.798 83.656 C 34.798 83.957,34.482 84.431,34.095 84.710 C 33.708 84.989,33.392 85.498,33.392 85.842 C 33.392 86.186,33.234 86.467,33.040 86.467 C 32.847 86.467,32.684 86.744,32.678 87.083 C 32.672 87.421,32.434 88.005,32.151 88.380 C 31.867 88.755,31.634 89.507,31.634 90.050 C 31.634 90.593,31.476 91.037,31.283 91.037 C 31.090 91.037,30.931 91.318,30.931 91.662 C 30.931 92.006,30.615 92.516,30.228 92.794 C 29.816 93.092,29.525 93.704,29.525 94.278 C 29.525 94.815,29.367 95.255,29.174 95.255 C 28.981 95.255,28.822 95.571,28.822 95.958 C 28.822 96.344,28.664 96.661,28.471 96.661 C 28.278 96.661,28.120 96.898,28.120 97.188 C 28.120 97.478,27.961 97.715,27.768 97.715 C 27.575 97.715,27.417 98.190,27.417 98.770 C 27.417 99.350,27.258 99.824,27.065 99.824 C 26.872 99.824,26.714 100.141,26.714 100.527 C 26.714 100.914,26.555 101.230,26.362 101.230 C 26.169 101.230,26.011 101.705,26.011 102.285 C 26.011 102.865,25.852 103.339,25.659 103.339 C 25.466 103.339,25.308 103.814,25.308 104.394 C 25.308 104.974,25.149 105.448,24.956 105.448 C 24.763 105.448,24.605 105.760,24.605 106.140 C 24.605 106.521,24.285 107.402,23.894 108.099 C 23.503 108.795,23.085 110.302,22.965 111.448 C 22.845 112.595,22.611 113.533,22.446 113.533 C 22.280 113.533,22.144 114.007,22.144 114.587 C 22.144 115.167,21.986 115.641,21.793 115.641 C 21.599 115.641,21.441 116.195,21.441 116.872 C 21.441 117.548,21.283 118.102,21.090 118.102 C 20.896 118.102,20.738 118.735,20.738 119.508 C 20.738 120.281,20.580 120.914,20.387 120.914 C 20.193 120.914,20.035 121.705,20.035 122.671 C 20.035 123.638,19.877 124.429,19.684 124.429 C 19.490 124.429,19.332 124.982,19.332 125.659 C 19.332 126.336,19.174 126.889,18.981 126.889 C 18.785 126.889,18.629 127.827,18.629 128.998 C 18.629 130.170,18.473 131.107,18.278 131.107 C 18.075 131.107,17.926 132.220,17.926 133.743 C 17.926 135.267,17.778 136.380,17.575 136.380 C 17.366 136.380,17.223 137.668,17.223 139.543 C 17.223 141.418,17.080 142.707,16.872 142.707 C 16.648 142.707,16.520 145.518,16.520 150.439 C 16.520 155.360,16.648 158.172,16.872 158.172 C 17.065 158.172,17.223 158.647,17.223 159.227 C 17.223 159.807,17.381 160.281,17.575 160.281 C 17.768 160.281,17.926 160.463,17.926 160.686 C 17.926 161.269,21.711 164.851,22.328 164.851 C 22.613 164.851,22.847 165.009,22.847 165.202 C 22.847 165.395,23.243 165.554,23.726 165.554 C 24.209 165.554,24.605 165.712,24.605 165.905 C 24.605 166.116,26.011 166.257,28.120 166.257 C 30.228 166.257,31.634 166.116,31.634 165.905 C 31.634 165.712,32.030 165.554,32.513 165.554 C 32.996 165.554,33.392 165.395,33.392 165.202 C 33.392 165.009,33.626 164.851,33.911 164.851 C 34.742 164.851,38.313 161.187,38.313 160.334 C 38.313 159.918,38.471 159.578,38.664 159.578 C 38.858 159.578,39.016 158.946,39.016 158.172 C 39.016 157.399,39.174 156.766,39.367 156.766 C 39.588 156.766,39.719 154.482,39.719 150.615 C 39.719 147.232,39.852 144.464,40.016 144.464 C 40.179 144.464,40.415 142.210,40.540 139.456 C 40.670 136.614,40.921 134.397,41.122 134.330 C 41.317 134.265,41.476 133.355,41.476 132.308 C 41.476 131.261,41.634 130.404,41.828 130.404 C 42.021 130.404,42.179 129.613,42.179 128.647 C 42.179 127.680,42.337 126.889,42.531 126.889 C 42.724 126.889,42.882 126.415,42.882 125.835 C 42.882 125.255,43.040 124.780,43.234 124.780 C 43.427 124.780,43.585 124.227,43.585 123.550 C 43.585 122.873,43.743 122.320,43.937 122.320 C 44.130 122.320,44.288 121.687,44.288 120.914 C 44.288 120.141,44.446 119.508,44.640 119.508 C 44.833 119.508,44.991 119.192,44.991 118.805 C 44.991 118.418,45.149 118.102,45.343 118.102 C 45.536 118.102,45.694 117.558,45.694 116.892 C 45.694 116.227,45.852 115.585,46.046 115.466 C 46.239 115.346,46.397 114.862,46.397 114.391 C 46.397 113.919,46.555 113.533,46.749 113.533 C 46.942 113.533,47.100 113.216,47.100 112.830 C 47.100 112.443,47.258 112.127,47.452 112.127 C 47.645 112.127,47.803 111.652,47.803 111.072 C 47.803 110.492,47.961 110.018,48.155 110.018 C 48.348 110.018,48.506 109.701,48.506 109.315 C 48.506 108.928,48.664 108.612,48.858 108.612 C 49.051 108.612,49.209 108.137,49.209 107.557 C 49.209 106.977,49.360 106.503,49.545 106.503 C 49.729 106.503,49.984 105.949,50.111 105.272 C 50.238 104.596,50.482 104.042,50.654 104.042 C 50.826 104.042,50.967 103.726,50.967 103.339 C 50.967 102.953,51.125 102.636,51.318 102.636 C 51.511 102.636,51.670 102.320,51.670 101.933 C 51.670 101.547,51.828 101.230,52.021 101.230 C 52.214 101.230,52.373 100.914,52.373 100.527 C 52.373 100.141,52.531 99.824,52.724 99.824 C 52.917 99.824,53.076 99.508,53.076 99.121 C 53.076 98.735,53.234 98.418,53.427 98.418 C 53.620 98.418,53.779 98.140,53.779 97.800 C 53.779 97.460,54.095 96.984,54.482 96.742 C 54.868 96.501,55.185 96.067,55.185 95.779 C 55.185 95.491,55.343 95.255,55.536 95.255 C 55.729 95.255,55.888 94.938,55.888 94.552 C 55.888 94.165,56.046 93.849,56.239 93.849 C 56.432 93.849,56.591 93.567,56.591 93.223 C 56.591 92.879,56.907 92.370,57.293 92.091 C 57.680 91.813,57.996 91.303,57.996 90.959 C 57.996 90.615,58.155 90.334,58.348 90.334 C 58.541 90.334,58.699 90.029,58.699 89.656 C 58.699 89.283,58.937 88.741,59.227 88.451 C 59.517 88.161,59.754 87.789,59.754 87.625 C 59.754 87.460,60.070 87.098,60.457 86.819 C 60.844 86.540,61.160 86.100,61.160 85.840 C 61.160 85.580,61.951 84.597,62.917 83.656 C 63.884 82.714,64.675 81.760,64.675 81.535 C 64.675 81.310,65.149 80.682,65.729 80.141 C 66.309 79.599,66.784 79.017,66.784 78.848 C 66.784 78.679,67.812 77.472,69.069 76.165 C 70.325 74.858,71.353 73.638,71.353 73.455 C 71.353 73.012,79.737 64.675,80.183 64.675 C 80.374 64.675,81.463 63.726,82.601 62.566 C 83.740 61.406,84.906 60.457,85.192 60.457 C 85.479 60.457,86.025 60.062,86.405 59.578 C 86.785 59.095,87.281 58.699,87.508 58.699 C 87.734 58.699,88.689 57.909,89.631 56.942 C 90.572 55.975,91.555 55.185,91.815 55.185 C 92.075 55.185,92.516 54.868,92.794 54.482 C 93.073 54.095,93.548 53.779,93.849 53.779 C 94.150 53.779,94.625 53.462,94.903 53.076 C 95.182 52.689,95.612 52.373,95.860 52.373 C 96.107 52.373,96.309 52.214,96.309 52.021 C 96.309 51.828,96.558 51.670,96.862 51.670 C 97.165 51.670,97.651 51.432,97.941 51.142 C 98.231 50.852,98.774 50.615,99.146 50.615 C 99.519 50.615,99.824 50.457,99.824 50.264 C 99.824 50.070,100.141 49.912,100.527 49.912 C 100.914 49.912,101.230 49.754,101.230 49.561 C 101.230 49.367,101.512 49.209,101.856 49.209 C 102.200 49.209,102.709 48.893,102.988 48.506 C 103.266 48.120,103.697 47.803,103.944 47.803 C 104.191 47.803,104.394 47.645,104.394 47.452 C 104.394 47.258,104.710 47.100,105.097 47.100 C 105.483 47.100,105.800 46.942,105.800 46.749 C 105.800 46.555,106.116 46.397,106.503 46.397 C 106.889 46.397,107.206 46.239,107.206 46.046 C 107.206 45.852,107.522 45.694,107.909 45.694 C 108.295 45.694,108.612 45.536,108.612 45.343 C 108.612 45.149,108.928 44.991,109.315 44.991 C 109.701 44.991,110.018 44.833,110.018 44.640 C 110.018 44.446,110.334 44.288,110.721 44.288 C 111.107 44.288,111.424 44.130,111.424 43.937 C 111.424 43.743,111.740 43.585,112.127 43.585 C 112.513 43.585,112.830 43.427,112.830 43.234 C 112.830 43.040,113.225 42.882,113.708 42.882 C 114.192 42.882,114.587 42.724,114.587 42.531 C 114.587 42.337,114.903 42.179,115.290 42.179 C 115.677 42.179,115.993 42.021,115.993 41.828 C 115.993 41.634,116.428 41.475,116.960 41.474 C 117.491 41.473,118.379 41.236,118.933 40.947 C 119.487 40.658,120.229 40.422,120.582 40.422 C 120.935 40.422,121.322 40.264,121.441 40.070 C 121.561 39.877,122.044 39.719,122.516 39.719 C 122.988 39.719,123.374 39.561,123.374 39.367 C 123.374 39.174,123.849 39.016,124.429 39.016 C 125.009 39.016,125.483 38.858,125.483 38.664 C 125.483 38.471,125.958 38.313,126.538 38.313 C 127.118 38.313,127.592 38.155,127.592 37.961 C 127.592 37.768,128.383 37.610,129.350 37.610 C 130.316 37.610,131.107 37.452,131.107 37.258 C 131.107 37.065,131.503 36.907,131.986 36.907 C 132.469 36.907,132.865 36.749,132.865 36.555 C 132.865 36.362,133.656 36.204,134.622 36.204 C 135.589 36.204,136.380 36.046,136.380 35.852 C 136.380 35.659,137.170 35.501,138.137 35.501 C 139.104 35.501,139.895 35.343,139.895 35.149 C 139.895 34.956,140.764 34.798,141.828 34.798 C 142.891 34.798,143.761 34.640,143.761 34.446 C 143.761 34.246,144.815 34.095,146.221 34.095 C 147.627 34.095,148.682 33.944,148.682 33.743 C 148.682 33.521,151.142 33.392,155.360 33.392 C 159.578 33.392,162.039 33.262,162.039 33.040 C 162.039 32.847,162.766 32.689,163.655 32.689 C 166.260 32.689,170.826 29.673,170.826 27.953 C 170.826 27.658,170.984 27.417,171.178 27.417 C 171.371 27.417,171.529 26.942,171.529 26.362 C 171.529 25.782,171.687 25.308,171.880 25.308 C 172.093 25.308,172.232 23.843,172.232 21.617 C 172.232 19.391,172.093 17.926,171.880 17.926 C 171.687 17.926,171.529 17.610,171.529 17.223 C 171.529 16.837,171.371 16.520,171.178 16.520 C 170.984 16.520,170.826 16.204,170.826 15.817 C 170.826 15.431,170.668 15.114,170.475 15.114 C 170.281 15.114,170.123 14.949,170.123 14.747 C 170.123 14.312,168.526 12.654,168.108 12.654 C 167.948 12.654,167.590 12.337,167.311 11.951 C 167.014 11.538,166.401 11.248,165.828 11.248 C 165.290 11.248,164.851 11.090,164.851 10.896 C 164.851 10.672,161.804 10.545,156.415 10.545 C 151.025 10.545,147.979 10.672,147.979 10.896 M152.730 50.856 C 150.413 50.930,148.365 51.143,148.178 51.330 C 147.991 51.517,146.851 51.670,145.645 51.670 C 144.438 51.670,143.353 51.828,143.234 52.021 C 143.114 52.214,142.314 52.373,141.456 52.373 C 140.597 52.373,139.895 52.531,139.895 52.724 C 139.895 52.917,139.104 53.076,138.137 53.076 C 137.170 53.076,136.380 53.234,136.380 53.427 C 136.380 53.620,135.747 53.779,134.974 53.779 C 134.200 53.779,133.568 53.937,133.568 54.130 C 133.568 54.323,133.014 54.482,132.337 54.482 C 131.661 54.482,131.107 54.640,131.107 54.833 C 131.107 55.026,130.633 55.185,130.053 55.185 C 129.473 55.185,128.998 55.343,128.998 55.536 C 128.998 55.729,128.524 55.888,127.944 55.888 C 127.364 55.888,126.889 56.046,126.889 56.239 C 126.889 56.432,126.415 56.591,125.835 56.591 C 125.255 56.591,124.780 56.749,124.780 56.942 C 124.780 57.135,124.385 57.293,123.902 57.293 C 123.418 57.293,123.023 57.452,123.023 57.645 C 123.023 57.838,122.707 57.996,122.320 57.996 C 121.933 57.996,121.617 58.155,121.617 58.348 C 121.617 58.541,121.142 58.699,120.562 58.699 C 119.982 58.699,119.508 58.858,119.508 59.051 C 119.508 59.244,119.192 59.402,118.805 59.402 C 118.418 59.402,118.102 59.561,118.102 59.754 C 118.102 59.947,117.841 60.105,117.522 60.105 C 116.839 60.105,113.059 61.887,112.888 62.289 C 112.824 62.441,112.468 62.566,112.097 62.566 C 111.727 62.566,111.424 62.724,111.424 62.917 C 111.424 63.111,111.107 63.269,110.721 63.269 C 110.334 63.269,110.018 63.427,110.018 63.620 C 110.018 63.814,109.701 63.972,109.315 63.972 C 108.928 63.972,108.612 64.130,108.612 64.323 C 108.612 64.517,108.295 64.675,107.909 64.675 C 107.522 64.675,107.206 64.833,107.206 65.026 C 107.206 65.220,106.947 65.378,106.632 65.378 C 106.054 65.378,104.745 66.635,104.745 67.189 C 104.745 67.353,104.464 67.487,104.120 67.487 C 103.776 67.487,103.266 67.803,102.988 68.190 C 102.709 68.576,102.200 68.893,101.856 68.893 C 101.512 68.893,101.230 69.021,101.230 69.177 C 101.230 69.333,100.598 69.740,99.824 70.081 C 99.051 70.422,98.418 70.848,98.418 71.027 C 98.418 71.207,98.141 71.355,97.803 71.356 C 97.465 71.358,96.814 71.833,96.358 72.411 C 95.901 72.989,95.377 73.462,95.192 73.462 C 95.008 73.462,94.087 74.253,93.146 75.220 C 92.204 76.186,91.242 76.977,91.007 76.977 C 90.470 76.977,82.953 84.548,82.953 85.089 C 82.953 85.309,82.162 86.231,81.195 87.138 C 80.228 88.046,79.438 88.906,79.438 89.050 C 79.438 89.194,79.070 89.679,78.620 90.129 C 78.171 90.578,77.598 91.441,77.348 92.046 C 77.097 92.651,76.753 93.146,76.583 93.146 C 76.413 93.146,76.274 93.427,76.274 93.771 C 76.274 94.115,75.958 94.625,75.571 94.903 C 75.185 95.182,74.868 95.657,74.868 95.958 C 74.868 96.259,74.552 96.734,74.165 97.012 C 73.779 97.291,73.462 97.686,73.462 97.891 C 73.462 98.096,73.146 98.491,72.759 98.770 C 72.373 99.048,72.056 99.523,72.056 99.824 C 72.056 100.126,71.740 100.600,71.353 100.879 C 70.967 101.157,70.650 101.667,70.650 102.011 C 70.650 102.355,70.492 102.636,70.299 102.636 C 70.105 102.636,69.947 102.953,69.947 103.339 C 69.947 103.726,69.789 104.042,69.596 104.042 C 69.402 104.042,69.244 104.359,69.244 104.745 C 69.244 105.132,69.104 105.448,68.932 105.448 C 68.760 105.448,68.516 106.002,68.389 106.678 C 68.262 107.355,68.007 107.909,67.822 107.909 C 67.638 107.909,67.487 108.225,67.487 108.612 C 67.487 108.998,67.329 109.315,67.135 109.315 C 66.942 109.315,66.784 109.631,66.784 110.018 C 66.784 110.404,66.626 110.721,66.432 110.721 C 66.239 110.721,66.081 111.037,66.081 111.424 C 66.081 111.810,65.923 112.127,65.729 112.127 C 65.536 112.127,65.378 112.601,65.378 113.181 C 65.378 113.761,65.220 114.236,65.026 114.236 C 64.833 114.236,64.675 114.552,64.675 114.938 C 64.675 115.325,64.517 115.641,64.323 115.641 C 64.130 115.641,63.972 115.879,63.972 116.169 C 63.972 116.459,63.814 116.696,63.620 116.696 C 63.427 116.696,63.269 117.170,63.269 117.750 C 63.269 118.330,63.111 118.805,62.917 118.805 C 62.724 118.805,62.566 119.279,62.566 119.859 C 62.566 120.439,62.408 120.914,62.214 120.914 C 62.021 120.914,61.863 121.388,61.863 121.968 C 61.863 122.548,61.705 123.023,61.511 123.023 C 61.318 123.023,61.160 123.497,61.160 124.077 C 61.160 124.657,61.002 125.132,60.808 125.132 C 60.615 125.132,60.457 125.654,60.457 126.292 C 60.457 126.930,60.306 127.603,60.121 127.788 C 59.936 127.973,59.676 129.428,59.543 131.022 C 59.410 132.615,59.166 133.919,59.000 133.919 C 58.835 133.919,58.699 134.631,58.699 135.501 C 58.699 136.371,58.541 137.083,58.348 137.083 C 58.147 137.083,57.996 138.137,57.996 139.543 C 57.996 140.949,57.846 142.004,57.645 142.004 C 57.420 142.004,57.293 145.050,57.293 150.439 C 57.293 155.829,57.420 158.875,57.645 158.875 C 57.838 158.875,57.996 159.350,57.996 159.930 C 57.996 160.510,58.155 160.984,58.348 160.984 C 58.541 160.984,58.699 161.154,58.699 161.361 C 58.699 161.568,58.897 161.944,59.139 162.196 C 59.380 162.449,59.811 162.991,60.095 163.402 C 60.379 163.812,60.894 164.148,61.238 164.148 C 61.581 164.148,61.863 164.306,61.863 164.499 C 61.863 164.692,62.179 164.851,62.566 164.851 C 62.953 164.851,63.269 165.009,63.269 165.202 C 63.269 165.395,63.743 165.554,64.323 165.554 C 64.903 165.554,65.378 165.712,65.378 165.905 C 65.378 166.115,66.725 166.257,68.717 166.257 C 70.709 166.257,72.056 166.115,72.056 165.905 C 72.056 165.712,72.496 165.554,73.033 165.554 C 73.607 165.554,74.219 165.263,74.517 164.851 C 74.795 164.464,75.247 164.148,75.520 164.148 C 76.085 164.148,77.329 162.835,77.329 162.238 C 77.329 162.020,77.645 161.614,78.032 161.336 C 78.444 161.038,78.735 160.426,78.735 159.852 C 78.735 159.315,78.893 158.875,79.086 158.875 C 79.281 158.875,79.438 157.938,79.438 156.766 C 79.438 155.595,79.594 154.657,79.789 154.657 C 80.006 154.657,80.141 152.841,80.141 149.912 C 80.141 146.983,80.275 145.167,80.492 145.167 C 80.690 145.167,80.844 144.171,80.844 142.882 C 80.844 141.593,80.997 140.598,81.195 140.598 C 81.388 140.598,81.547 139.807,81.547 138.840 C 81.547 137.873,81.705 137.083,81.898 137.083 C 82.091 137.083,82.250 136.450,82.250 135.677 C 82.250 134.903,82.408 134.271,82.601 134.271 C 82.794 134.271,82.953 133.717,82.953 133.040 C 82.953 132.364,83.111 131.810,83.304 131.810 C 83.497 131.810,83.656 131.336,83.656 130.756 C 83.656 130.176,83.814 129.701,84.007 129.701 C 84.200 129.701,84.359 129.385,84.359 128.998 C 84.359 128.612,84.517 128.295,84.710 128.295 C 84.903 128.295,85.062 127.821,85.062 127.241 C 85.062 126.661,85.220 126.186,85.413 126.186 C 85.606 126.186,85.764 125.888,85.764 125.523 C 85.764 125.159,86.001 124.408,86.290 123.854 C 86.578 123.300,86.816 122.570,86.817 122.232 C 86.818 121.894,86.977 121.617,87.170 121.617 C 87.364 121.617,87.522 121.301,87.522 120.914 C 87.522 120.527,87.680 120.211,87.873 120.211 C 88.067 120.211,88.225 119.895,88.225 119.508 C 88.225 119.121,88.383 118.805,88.576 118.805 C 88.770 118.805,88.928 118.489,88.928 118.102 C 88.928 117.715,89.086 117.399,89.279 117.399 C 89.473 117.399,89.631 117.083,89.631 116.696 C 89.631 116.309,89.789 115.993,89.982 115.993 C 90.176 115.993,90.334 115.756,90.334 115.466 C 90.334 115.176,90.492 114.938,90.685 114.938 C 90.879 114.938,91.037 114.657,91.037 114.313 C 91.037 113.969,91.353 113.460,91.740 113.181 C 92.127 112.902,92.443 112.456,92.443 112.190 C 92.443 111.924,92.917 111.262,93.497 110.721 C 94.077 110.179,94.552 109.550,94.552 109.324 C 94.552 109.098,94.789 108.676,95.079 108.386 C 95.369 108.096,95.606 107.553,95.606 107.181 C 95.606 106.808,95.740 106.503,95.904 106.503 C 96.374 106.503,97.715 105.232,97.715 104.787 C 97.715 104.566,99.225 102.845,101.070 100.962 C 107.399 94.504,110.301 91.740,110.750 91.740 C 110.965 91.740,111.585 91.265,112.127 90.685 C 112.668 90.105,113.213 89.631,113.338 89.631 C 113.463 89.631,113.960 89.236,114.443 88.752 C 114.927 88.269,115.568 87.873,115.868 87.873 C 116.168 87.873,116.857 87.399,117.399 86.819 C 117.941 86.239,118.637 85.764,118.946 85.764 C 119.255 85.764,119.508 85.606,119.508 85.413 C 119.508 85.220,119.824 85.062,120.211 85.062 C 120.598 85.062,120.914 84.933,120.914 84.776 C 120.914 84.618,121.467 84.273,122.144 84.007 C 122.821 83.742,123.374 83.396,123.374 83.238 C 123.374 83.081,123.691 82.953,124.077 82.953 C 124.464 82.953,124.780 82.794,124.780 82.601 C 124.780 82.408,125.097 82.250,125.483 82.250 C 125.870 82.250,126.186 82.091,126.186 81.898 C 126.186 81.705,126.468 81.547,126.812 81.547 C 127.156 81.547,127.665 81.230,127.944 80.844 C 128.241 80.431,128.854 80.141,129.427 80.141 C 129.965 80.141,130.404 79.982,130.404 79.789 C 130.404 79.596,130.800 79.438,131.283 79.438 C 131.766 79.438,132.162 79.300,132.162 79.131 C 132.162 78.963,132.953 78.720,133.919 78.592 C 134.886 78.464,135.677 78.206,135.677 78.020 C 135.677 77.833,136.151 77.680,136.731 77.680 C 137.311 77.680,137.786 77.522,137.786 77.329 C 137.786 77.135,138.330 76.977,138.995 76.977 C 139.660 76.977,140.302 76.819,140.422 76.626 C 140.541 76.432,141.025 76.274,141.497 76.274 C 141.969 76.274,142.355 76.116,142.355 75.923 C 142.355 75.729,143.146 75.571,144.112 75.571 C 145.079 75.571,145.870 75.413,145.870 75.220 C 145.870 75.021,146.866 74.868,148.155 74.868 C 149.443 74.868,150.439 74.715,150.439 74.517 C 150.439 74.304,151.963 74.165,154.306 74.165 C 156.649 74.165,158.172 74.027,158.172 73.814 C 158.172 73.604,159.520 73.462,161.511 73.462 C 163.503 73.462,164.851 73.320,164.851 73.111 C 164.851 72.917,165.290 72.759,165.828 72.759 C 166.401 72.759,167.014 72.469,167.311 72.056 C 167.590 71.670,167.948 71.353,168.108 71.353 C 168.485 71.353,170.123 69.715,170.123 69.338 C 170.123 69.178,170.439 68.820,170.826 68.541 C 171.239 68.244,171.529 67.631,171.529 67.058 C 171.529 66.520,171.687 66.081,171.880 66.081 C 172.093 66.081,172.232 64.616,172.232 62.390 C 172.232 60.164,172.093 58.699,171.880 58.699 C 171.687 58.699,171.529 58.225,171.529 57.645 C 171.529 57.065,171.371 56.591,171.178 56.591 C 170.984 56.591,170.826 56.349,170.826 56.054 C 170.826 55.199,167.999 52.607,166.081 51.704 C 164.145 50.793,160.982 50.592,152.730 50.856 M153.251 91.388 C 153.251 91.582,152.381 91.740,151.318 91.740 C 150.255 91.740,149.385 91.898,149.385 92.091 C 149.385 92.285,148.594 92.443,147.627 92.443 C 146.661 92.443,145.870 92.601,145.870 92.794 C 145.870 92.988,145.237 93.146,144.464 93.146 C 143.691 93.146,143.058 93.304,143.058 93.497 C 143.058 93.691,142.504 93.849,141.828 93.849 C 141.151 93.849,140.598 94.007,140.598 94.200 C 140.598 94.394,140.281 94.552,139.895 94.552 C 139.508 94.552,139.192 94.710,139.192 94.903 C 139.192 95.097,138.717 95.255,138.137 95.255 C 137.557 95.255,137.083 95.413,137.083 95.606 C 137.083 95.800,136.608 95.958,136.028 95.958 C 135.448 95.958,134.974 96.116,134.974 96.309 C 134.974 96.503,134.657 96.661,134.271 96.661 C 133.884 96.661,133.568 96.801,133.568 96.973 C 133.568 97.145,133.014 97.389,132.337 97.516 C 131.661 97.643,131.107 97.898,131.107 98.083 C 131.107 98.267,130.826 98.418,130.482 98.418 C 130.138 98.418,129.628 98.735,129.350 99.121 C 129.071 99.508,128.562 99.824,128.218 99.824 C 127.874 99.824,127.592 99.982,127.592 100.176 C 127.592 100.369,127.276 100.527,126.889 100.527 C 126.503 100.527,126.186 100.685,126.186 100.879 C 126.186 101.072,125.905 101.230,125.561 101.230 C 125.217 101.230,124.707 101.547,124.429 101.933 C 124.150 102.320,123.783 102.636,123.614 102.636 C 123.444 102.636,122.862 103.111,122.320 103.691 C 121.778 104.271,121.166 104.745,120.960 104.745 C 119.990 104.745,110.721 114.143,110.721 115.127 C 110.721 115.410,110.587 115.641,110.423 115.641 C 109.905 115.641,108.612 116.933,108.612 117.450 C 108.612 117.723,108.295 118.175,107.909 118.453 C 107.522 118.732,107.206 119.242,107.206 119.586 C 107.206 119.929,107.047 120.211,106.854 120.211 C 106.661 120.211,106.503 120.527,106.503 120.914 C 106.503 121.301,106.344 121.617,106.151 121.617 C 105.958 121.617,105.800 121.865,105.800 122.169 C 105.800 122.473,105.562 122.959,105.272 123.249 C 104.982 123.539,104.745 124.081,104.745 124.454 C 104.745 124.827,104.587 125.132,104.394 125.132 C 104.200 125.132,104.042 125.369,104.042 125.659 C 104.042 125.949,103.884 126.186,103.691 126.186 C 103.497 126.186,103.339 126.503,103.339 126.889 C 103.339 127.276,103.181 127.592,102.988 127.592 C 102.794 127.592,102.636 127.909,102.636 128.295 C 102.636 128.682,102.478 128.998,102.285 128.998 C 102.091 128.998,101.933 129.631,101.933 130.404 C 101.933 131.178,101.775 131.810,101.582 131.810 C 101.388 131.810,101.230 132.127,101.230 132.513 C 101.230 132.900,101.112 133.217,100.967 133.219 C 100.485 133.224,99.824 135.094,99.824 136.450 C 99.824 137.184,99.666 137.786,99.473 137.786 C 99.279 137.786,99.121 138.260,99.121 138.840 C 99.121 139.420,98.963 139.895,98.770 139.895 C 98.576 139.895,98.418 140.755,98.418 141.807 C 98.418 142.859,98.260 143.817,98.067 143.937 C 97.873 144.056,97.715 145.331,97.715 146.769 C 97.715 148.279,97.567 149.385,97.364 149.385 C 97.148 149.385,97.012 151.084,97.012 153.779 C 97.012 156.473,97.148 158.172,97.364 158.172 C 97.557 158.172,97.715 158.647,97.715 159.227 C 97.715 159.807,97.873 160.281,98.067 160.281 C 98.260 160.281,98.418 160.463,98.418 160.686 C 98.418 161.269,102.203 164.851,102.820 164.851 C 103.106 164.851,103.339 165.009,103.339 165.202 C 103.339 165.395,103.735 165.554,104.218 165.554 C 104.701 165.554,105.097 165.712,105.097 165.905 C 105.097 166.116,106.503 166.257,108.612 166.257 C 110.721 166.257,112.127 166.116,112.127 165.905 C 112.127 165.712,112.522 165.554,113.005 165.554 C 113.489 165.554,113.884 165.395,113.884 165.202 C 113.884 165.009,114.118 164.851,114.403 164.851 C 115.020 164.851,118.805 161.269,118.805 160.686 C 118.805 160.463,118.963 160.281,119.156 160.281 C 119.350 160.281,119.508 159.807,119.508 159.227 C 119.508 158.647,119.666 158.172,119.859 158.172 C 120.073 158.172,120.211 156.591,120.211 154.130 C 120.211 151.670,120.348 150.088,120.562 150.088 C 120.758 150.088,120.914 149.151,120.914 147.979 C 120.914 146.807,121.070 145.870,121.265 145.870 C 121.459 145.870,121.617 145.395,121.617 144.815 C 121.617 144.236,121.764 143.761,121.943 143.761 C 122.122 143.761,122.378 142.891,122.511 141.828 C 122.644 140.764,122.892 139.895,123.063 139.895 C 123.234 139.895,123.374 139.455,123.374 138.918 C 123.374 138.344,123.665 137.732,124.077 137.434 C 124.464 137.155,124.780 136.646,124.780 136.302 C 124.780 135.958,124.938 135.677,125.132 135.677 C 125.325 135.677,125.483 135.371,125.483 134.997 C 125.483 134.624,125.800 134.218,126.186 134.095 C 126.573 133.972,126.889 133.601,126.889 133.270 C 126.889 132.939,127.206 132.440,127.592 132.162 C 127.979 131.883,128.295 131.449,128.295 131.198 C 128.295 130.338,136.312 122.320,137.171 122.320 C 137.424 122.320,137.858 122.004,138.137 121.617 C 138.416 121.230,138.890 120.914,139.192 120.914 C 139.493 120.914,139.967 120.598,140.246 120.211 C 140.525 119.824,140.955 119.508,141.202 119.508 C 141.450 119.508,141.652 119.350,141.652 119.156 C 141.652 118.963,141.933 118.805,142.277 118.805 C 142.621 118.805,143.131 118.489,143.409 118.102 C 143.707 117.689,144.319 117.399,144.893 117.399 C 145.430 117.399,145.870 117.241,145.870 117.047 C 145.870 116.854,146.344 116.696,146.924 116.696 C 147.504 116.696,147.979 116.547,147.979 116.366 C 147.979 116.185,148.691 115.929,149.561 115.799 C 150.431 115.668,151.142 115.421,151.142 115.250 C 151.142 115.079,152.161 114.938,153.406 114.938 C 154.652 114.938,155.768 114.780,155.888 114.587 C 156.010 114.389,157.707 114.236,159.775 114.236 C 161.987 114.236,163.445 114.096,163.445 113.884 C 163.445 113.691,164.077 113.533,164.851 113.533 C 165.624 113.533,166.257 113.374,166.257 113.181 C 166.257 112.988,166.439 112.830,166.661 112.830 C 167.244 112.830,170.826 109.044,170.826 108.428 C 170.826 108.142,170.984 107.909,171.178 107.909 C 171.371 107.909,171.529 107.513,171.529 107.030 C 171.529 106.547,171.687 106.151,171.880 106.151 C 172.094 106.151,172.232 104.628,172.232 102.285 C 172.232 99.941,172.094 98.418,171.880 98.418 C 171.687 98.418,171.529 98.181,171.529 97.891 C 171.529 97.601,171.371 97.364,171.178 97.364 C 170.984 97.364,170.826 97.122,170.826 96.827 C 170.826 96.532,170.114 95.579,169.244 94.709 C 168.374 93.839,167.663 92.973,167.663 92.785 C 167.663 92.597,167.346 92.443,166.960 92.443 C 166.573 92.443,166.257 92.285,166.257 92.091 C 166.257 91.898,165.782 91.740,165.202 91.740 C 164.622 91.740,164.148 91.582,164.148 91.388 C 164.148 91.169,162.097 91.037,158.699 91.037 C 155.302 91.037,153.251 91.169,153.251 91.388 " stroke="none" fill="#04c4fc" fill-rule="evenodd"></path><path id="path3" d="M369.772 87.513 C 369.772 87.731,368.612 87.873,366.842 87.873 C 365.231 87.873,363.812 87.974,363.689 88.098 C 363.566 88.221,362.025 88.291,360.265 88.252 C 358.506 88.213,356.880 88.333,356.653 88.519 C 356.425 88.704,355.448 88.938,354.482 89.040 C 353.515 89.141,351.933 89.409,350.967 89.637 C 350.000 89.864,348.221 90.127,347.012 90.222 C 345.804 90.317,344.815 90.539,344.815 90.715 C 344.815 90.892,344.341 91.037,343.761 91.037 C 343.181 91.037,342.707 91.195,342.707 91.388 C 342.707 91.582,342.153 91.740,341.476 91.740 C 340.800 91.740,340.246 91.898,340.246 92.091 C 340.246 92.285,339.455 92.443,338.489 92.443 C 337.522 92.443,336.731 92.601,336.731 92.794 C 336.731 92.988,336.420 93.146,336.039 93.146 C 335.658 93.146,334.783 93.462,334.095 93.849 C 333.407 94.236,332.374 94.552,331.800 94.552 C 331.225 94.552,330.756 94.710,330.756 94.903 C 330.756 95.097,330.281 95.255,329.701 95.255 C 329.121 95.255,328.647 95.413,328.647 95.606 C 328.647 95.800,328.330 95.958,327.944 95.958 C 327.557 95.958,327.241 96.116,327.241 96.309 C 327.241 96.503,326.855 96.661,326.383 96.661 C 325.911 96.661,325.438 96.801,325.332 96.972 C 325.226 97.144,324.596 97.386,323.931 97.511 C 323.266 97.636,322.671 97.876,322.609 98.044 C 322.547 98.213,322.100 98.406,321.617 98.473 C 321.134 98.539,320.659 98.673,320.562 98.770 C 320.143 99.190,318.770 99.824,318.282 99.824 C 317.990 99.824,317.750 99.982,317.750 100.176 C 317.750 100.369,317.314 100.527,316.781 100.527 C 316.191 100.527,315.638 100.803,315.372 101.230 C 315.130 101.617,314.697 101.933,314.408 101.933 C 314.120 101.933,313.884 102.091,313.884 102.285 C 313.884 102.478,313.603 102.636,313.259 102.636 C 312.915 102.636,312.405 102.953,312.127 103.339 C 311.848 103.726,311.338 104.042,310.994 104.042 C 310.650 104.042,310.369 104.200,310.369 104.394 C 310.369 104.587,310.111 104.745,309.795 104.745 C 309.480 104.745,308.965 105.026,308.653 105.368 C 308.340 105.711,307.649 106.182,307.118 106.415 C 306.586 106.648,306.151 107.010,306.151 107.219 C 306.151 107.428,305.999 107.504,305.812 107.389 C 305.626 107.274,305.112 107.542,304.670 107.984 C 304.228 108.426,303.736 108.744,303.576 108.691 C 303.417 108.637,302.839 109.072,302.293 109.657 C 301.747 110.242,301.110 110.721,300.879 110.721 C 300.648 110.721,299.581 111.670,298.509 112.830 C 297.438 113.989,296.346 114.938,296.083 114.938 C 295.821 114.938,295.606 115.086,295.606 115.266 C 295.606 115.447,295.290 115.695,294.903 115.817 C 294.517 115.940,294.200 116.294,294.200 116.605 C 294.200 116.915,292.816 118.538,291.125 120.210 C 289.433 121.883,287.998 123.477,287.935 123.752 C 287.872 124.028,287.673 124.306,287.493 124.371 C 287.313 124.436,287.248 124.622,287.349 124.785 C 287.450 124.948,287.214 125.182,286.824 125.306 C 286.435 125.430,286.116 125.773,286.116 126.069 C 286.116 126.365,285.641 127.050,285.062 127.592 C 284.482 128.134,284.007 128.795,284.007 129.062 C 284.007 129.328,283.691 129.774,283.304 130.053 C 282.917 130.331,282.601 130.841,282.601 131.185 C 282.601 131.529,282.443 131.810,282.250 131.810 C 282.056 131.810,281.898 132.054,281.898 132.352 C 281.898 132.650,281.582 133.234,281.195 133.648 C 280.809 134.063,280.296 134.848,280.055 135.391 C 279.814 135.935,279.489 136.380,279.331 136.380 C 279.174 136.380,279.142 136.538,279.262 136.731 C 279.381 136.924,279.237 137.083,278.942 137.083 C 278.638 137.083,278.483 137.287,278.586 137.554 C 278.685 137.813,278.526 138.224,278.233 138.468 C 277.939 138.711,277.598 139.448,277.475 140.106 C 277.351 140.763,277.110 141.301,276.938 141.301 C 276.766 141.301,276.626 141.617,276.626 142.004 C 276.626 142.390,276.467 142.707,276.274 142.707 C 276.081 142.707,275.923 143.102,275.923 143.585 C 275.923 144.069,275.764 144.464,275.571 144.464 C 275.378 144.464,275.220 144.696,275.220 144.981 C 275.220 145.265,274.903 146.060,274.517 146.749 C 274.130 147.437,273.814 148.312,273.814 148.693 C 273.814 149.073,273.656 149.385,273.462 149.385 C 273.269 149.385,273.111 149.701,273.111 150.088 C 273.111 150.475,272.953 150.791,272.759 150.791 C 272.566 150.791,272.408 151.265,272.408 151.845 C 272.408 152.425,272.250 152.900,272.056 152.900 C 271.863 152.900,271.705 153.295,271.705 153.779 C 271.705 154.262,271.581 154.657,271.430 154.657 C 271.279 154.657,271.120 155.085,271.076 155.608 C 271.033 156.131,270.840 156.717,270.648 156.909 C 270.456 157.101,270.299 157.613,270.299 158.046 C 270.299 158.479,270.175 158.910,270.024 159.004 C 269.873 159.097,269.710 159.693,269.661 160.329 C 269.613 160.964,269.454 161.569,269.309 161.673 C 269.163 161.778,269.050 162.179,269.057 162.566 C 269.064 162.953,268.879 163.586,268.645 163.975 C 268.412 164.363,268.112 165.984,267.979 167.577 C 267.846 169.171,267.602 170.475,267.436 170.475 C 267.271 170.475,267.135 171.186,267.135 172.056 C 267.135 172.926,266.977 173.638,266.784 173.638 C 266.589 173.638,266.432 174.575,266.432 175.747 C 266.432 176.919,266.276 177.856,266.081 177.856 C 265.871 177.856,265.729 179.203,265.729 181.195 C 265.729 183.187,265.588 184.534,265.378 184.534 C 265.168 184.534,265.026 185.875,265.026 187.853 C 265.026 189.686,264.869 191.268,264.675 191.388 C 264.454 191.525,264.323 195.317,264.323 201.602 C 264.323 208.033,264.449 211.599,264.675 211.599 C 264.890 211.599,265.026 213.298,265.026 215.993 C 265.026 218.688,265.162 220.387,265.378 220.387 C 265.590 220.387,265.729 221.851,265.729 224.077 C 265.729 226.303,265.869 227.768,266.081 227.768 C 266.274 227.768,266.432 228.130,266.432 228.572 C 266.432 229.124,266.653 229.392,267.135 229.429 C 267.540 229.459,267.838 229.265,267.838 228.972 C 267.838 228.691,267.996 228.147,268.190 227.763 C 268.383 227.379,268.699 226.751,268.893 226.367 C 269.086 225.983,269.244 225.348,269.244 224.956 C 269.244 224.564,269.384 223.969,269.555 223.633 C 270.119 222.524,270.608 221.288,271.185 219.508 C 271.499 218.541,271.959 217.276,272.207 216.696 C 273.834 212.899,275.220 209.495,275.220 209.297 C 275.220 209.076,276.466 206.434,280.435 198.243 C 282.432 194.121,285.012 189.270,287.001 185.895 C 287.727 184.663,288.595 183.181,288.929 182.601 C 290.330 180.175,294.177 174.042,295.288 172.466 C 295.946 171.531,296.880 170.167,297.364 169.434 C 299.052 166.874,301.540 163.436,304.506 159.564 C 307.290 155.930,308.440 154.452,308.599 154.306 C 308.704 154.209,309.737 152.944,310.895 151.494 C 312.053 150.044,313.728 148.067,314.617 147.100 C 315.507 146.134,317.674 143.743,319.433 141.788 C 322.940 137.890,332.520 128.652,335.849 125.957 C 339.661 122.871,343.585 124.080,343.585 128.341 L 343.585 130.130 339.719 133.674 C 334.906 138.086,324.155 148.863,321.761 151.676 C 320.176 153.538,314.560 160.286,313.429 161.687 C 312.603 162.710,306.976 170.315,306.147 171.529 C 305.684 172.206,305.213 172.838,305.098 172.935 C 304.983 173.032,304.544 173.706,304.123 174.435 C 303.701 175.163,303.185 175.954,302.975 176.192 C 302.766 176.431,302.290 177.100,301.918 177.680 C 298.649 182.779,296.955 185.495,296.766 185.940 C 296.643 186.230,296.106 187.112,295.573 187.899 C 295.040 188.686,293.539 191.375,292.238 193.874 C 290.937 196.373,289.106 199.823,288.170 201.539 C 287.234 203.255,286.467 204.802,286.467 204.976 C 286.467 205.150,285.931 206.435,285.276 207.831 C 282.274 214.229,279.399 221.216,277.797 226.011 C 277.312 227.460,276.771 228.797,276.595 228.981 C 276.418 229.164,276.274 229.671,276.274 230.106 C 276.274 230.542,276.096 231.341,275.879 231.882 C 273.743 237.195,273.353 239.367,274.535 239.367 C 275.793 239.367,288.439 235.112,292.267 233.400 C 293.040 233.054,294.859 232.256,296.309 231.626 C 298.689 230.593,300.876 229.478,305.886 226.745 C 322.790 217.524,341.452 199.071,351.881 181.265 C 352.538 180.144,353.608 178.325,354.260 177.223 C 356.182 173.971,356.559 173.284,358.439 169.596 C 360.192 166.158,362.390 161.446,362.390 161.125 C 362.390 161.037,362.954 159.743,363.644 158.250 C 364.333 156.757,365.043 155.220,365.222 154.833 C 365.400 154.446,365.925 153.023,366.390 151.670 C 366.854 150.316,367.743 147.865,368.364 146.221 C 369.842 142.317,372.483 133.593,373.845 128.120 C 374.673 124.788,375.068 123.278,375.406 122.144 C 375.579 121.564,375.962 119.745,376.256 118.102 C 376.551 116.459,377.026 114.007,377.311 112.654 C 378.471 107.152,380.141 93.774,380.141 89.982 L 380.141 87.346 374.956 87.249 C 371.581 87.186,369.772 87.278,369.772 87.513 M386.022 117.047 C 386.022 117.724,386.094 118.001,386.183 117.663 C 386.271 117.324,386.271 116.771,386.183 116.432 C 386.094 116.094,386.022 116.371,386.022 117.047 M173.638 164.499 C 173.638 164.711,172.173 164.851,169.947 164.851 C 167.721 164.851,166.257 164.990,166.257 165.202 C 166.257 165.395,165.712 165.554,165.047 165.554 C 164.382 165.554,163.740 165.712,163.620 165.905 C 163.501 166.098,162.622 166.257,161.666 166.257 C 160.711 166.257,159.930 166.415,159.930 166.608 C 159.930 166.801,159.218 166.960,158.348 166.960 C 157.478 166.960,156.766 167.118,156.766 167.311 C 156.766 167.504,156.134 167.663,155.360 167.663 C 154.587 167.663,153.954 167.821,153.954 168.014 C 153.954 168.207,153.568 168.366,153.096 168.366 C 152.624 168.366,152.141 168.524,152.021 168.717 C 151.902 168.910,151.260 169.069,150.594 169.069 C 149.929 169.069,149.385 169.227,149.385 169.420 C 149.385 169.613,148.910 169.772,148.330 169.772 C 147.750 169.772,147.276 169.930,147.276 170.123 C 147.276 170.316,146.960 170.475,146.573 170.475 C 146.186 170.475,145.870 170.633,145.870 170.826 C 145.870 171.019,145.237 171.178,144.464 171.178 C 143.691 171.178,143.058 171.318,143.058 171.490 C 143.058 171.662,142.792 171.780,142.467 171.754 C 141.525 171.676,140.613 173.557,141.331 174.097 C 141.638 174.328,141.816 174.736,141.725 175.005 C 141.635 175.273,141.812 175.633,142.119 175.805 C 142.426 175.976,142.588 176.350,142.479 176.635 C 142.369 176.920,142.455 177.153,142.669 177.153 C 142.883 177.153,143.058 177.513,143.058 177.954 C 143.058 178.395,143.374 178.983,143.761 179.262 C 144.148 179.541,144.464 180.050,144.464 180.394 C 144.464 180.738,144.622 181.019,144.815 181.019 C 145.009 181.019,145.167 181.336,145.167 181.722 C 145.167 182.109,145.286 182.427,145.431 182.428 C 145.746 182.431,146.573 184.133,146.573 184.780 C 146.573 185.032,146.731 185.237,146.924 185.237 C 147.118 185.237,147.276 185.490,147.276 185.799 C 147.276 186.108,147.750 186.804,148.330 187.346 C 148.910 187.888,149.385 188.505,149.385 188.717 C 149.385 188.930,149.543 189.104,149.736 189.104 C 149.930 189.104,150.088 189.409,150.088 189.782 C 150.088 190.154,150.325 190.697,150.615 190.987 C 150.905 191.277,151.142 191.699,151.142 191.925 C 151.142 192.151,151.617 192.780,152.197 193.322 C 152.777 193.863,153.251 194.560,153.251 194.869 C 153.251 195.178,153.409 195.431,153.603 195.431 C 153.796 195.431,153.954 195.637,153.954 195.889 C 153.954 196.141,154.508 196.952,155.185 197.691 C 155.861 198.429,156.415 198.924,156.415 198.789 C 156.415 198.654,156.652 198.781,156.942 199.071 C 157.232 199.361,157.469 199.783,157.469 200.010 C 157.469 200.236,157.918 200.840,158.466 201.353 C 159.014 201.865,159.404 202.458,159.334 202.669 C 159.263 202.880,160.278 204.100,161.588 205.380 C 168.442 212.071,169.425 213.005,169.613 213.005 C 169.725 213.005,170.563 213.757,171.475 214.675 C 172.387 215.593,173.364 216.397,173.646 216.461 C 173.928 216.524,174.276 216.762,174.420 216.988 C 174.564 217.214,174.684 217.256,174.687 217.082 C 174.690 216.907,174.988 217.105,175.349 217.521 C 175.710 217.937,176.263 218.278,176.579 218.278 C 176.895 218.278,177.153 218.436,177.153 218.629 C 177.153 218.822,177.479 218.981,177.877 218.981 C 178.275 218.981,178.503 219.139,178.383 219.332 C 178.264 219.525,178.422 219.684,178.735 219.684 C 179.047 219.684,179.206 219.842,179.086 220.035 C 178.967 220.228,179.177 220.387,179.553 220.387 C 179.929 220.387,180.611 220.860,181.068 221.438 C 181.524 222.016,182.064 222.491,182.267 222.492 C 182.850 222.497,184.528 223.347,184.532 223.638 C 184.533 223.783,184.851 223.902,185.237 223.902 C 185.624 223.902,185.941 224.020,185.943 224.165 C 185.946 224.444,187.617 225.308,188.153 225.308 C 188.326 225.308,188.927 225.635,189.489 226.034 C 190.050 226.434,190.510 226.640,190.510 226.491 C 190.510 226.343,190.699 226.411,190.931 226.643 C 191.163 226.875,191.638 227.065,191.986 227.065 C 192.334 227.065,192.619 227.223,192.619 227.417 C 192.619 227.610,193.093 227.768,193.673 227.768 C 194.253 227.768,194.728 227.926,194.728 228.120 C 194.728 228.313,195.123 228.471,195.606 228.471 C 196.090 228.471,196.485 228.629,196.485 228.822 C 196.485 229.016,196.960 229.174,197.540 229.174 C 198.120 229.174,198.594 229.332,198.594 229.525 C 198.594 229.719,198.910 229.877,199.297 229.877 C 199.684 229.877,200.000 230.035,200.000 230.228 C 200.000 230.422,200.791 230.580,201.757 230.580 C 202.724 230.580,203.515 230.738,203.515 230.931 C 203.515 231.125,203.910 231.283,204.394 231.283 C 204.877 231.283,205.272 231.441,205.272 231.634 C 205.272 231.828,206.063 231.986,207.030 231.986 C 207.996 231.986,208.787 232.144,208.787 232.337 C 208.787 232.546,210.083 232.689,211.972 232.689 C 214.005 232.689,215.077 232.816,214.938 233.040 C 214.796 233.271,217.798 233.392,223.684 233.392 C 229.281 233.392,232.729 233.260,232.865 233.040 C 232.984 232.847,233.468 232.689,233.940 232.689 C 234.412 232.689,234.798 232.570,234.798 232.425 C 234.798 231.204,233.661 227.203,233.152 226.634 C 231.612 224.912,228.443 221.961,223.914 218.032 C 217.055 212.082,206.830 205.049,198.946 200.857 C 197.882 200.292,196.933 199.747,196.837 199.645 C 196.600 199.397,189.387 195.846,185.230 193.932 C 180.677 191.835,179.386 189.422,181.430 186.824 C 183.276 184.477,185.162 184.615,191.564 187.567 C 200.486 191.680,213.098 199.022,218.981 203.528 C 219.657 204.046,221.397 205.350,222.847 206.425 C 224.297 207.500,225.800 208.673,226.186 209.032 C 227.073 209.856,229.039 211.248,229.316 211.248 C 230.620 211.248,223.621 196.100,219.573 190.158 C 218.109 188.010,214.908 183.999,213.122 182.074 C 212.314 181.204,211.365 180.171,211.012 179.779 C 210.658 179.387,209.341 178.201,208.084 177.143 C 206.828 176.085,205.721 175.128,205.624 175.016 C 204.592 173.818,196.763 169.303,193.497 168.023 C 192.337 167.568,191.230 167.082,191.037 166.943 C 190.844 166.803,190.171 166.579,189.543 166.445 C 187.540 166.017,188.146 165.250,190.598 165.111 L 192.794 164.986 190.623 164.918 C 188.992 164.867,188.304 164.998,187.861 165.440 C 187.163 166.138,186.050 165.647,186.219 164.716 C 186.311 164.210,185.631 164.148,179.980 164.148 C 175.986 164.148,173.638 164.278,173.638 164.499 " stroke="none" fill="#9bdb04" fill-rule="evenodd"></path><path id="path4" d="M380.141 89.895 C 380.141 93.767,378.484 107.087,377.311 112.654 C 377.026 114.007,376.551 116.459,376.256 118.102 C 375.962 119.745,375.579 121.564,375.406 122.144 C 375.068 123.278,374.673 124.788,373.845 128.120 C 372.483 133.593,369.842 142.317,368.364 146.221 C 367.743 147.865,366.854 150.316,366.390 151.670 C 365.925 153.023,365.400 154.446,365.222 154.833 C 365.043 155.220,364.333 156.757,363.644 158.250 C 362.954 159.743,362.390 161.037,362.390 161.125 C 362.390 161.446,360.192 166.158,358.439 169.596 C 356.559 173.284,356.182 173.971,354.260 177.223 C 353.608 178.325,352.538 180.144,351.881 181.265 C 341.452 199.071,322.790 217.524,305.886 226.745 C 300.876 229.478,298.689 230.593,296.309 231.626 C 294.859 232.256,293.040 233.054,292.267 233.400 C 288.439 235.112,275.793 239.367,274.535 239.367 C 273.353 239.367,273.743 237.195,275.879 231.882 C 276.096 231.341,276.274 230.542,276.274 230.106 C 276.274 229.671,276.418 229.164,276.595 228.981 C 276.771 228.797,277.312 227.460,277.797 226.011 C 279.399 221.216,282.274 214.229,285.276 207.831 C 285.931 206.435,286.467 205.150,286.467 204.976 C 286.467 204.802,287.234 203.255,288.170 201.539 C 289.106 199.823,290.937 196.373,292.238 193.874 C 293.539 191.375,295.040 188.686,295.573 187.899 C 296.106 187.112,296.643 186.230,296.766 185.940 C 296.955 185.495,298.649 182.779,301.918 177.680 C 302.290 177.100,302.766 176.431,302.975 176.192 C 303.185 175.954,303.701 175.163,304.123 174.435 C 304.544 173.706,304.983 173.032,305.098 172.935 C 305.213 172.838,305.684 172.206,306.147 171.529 C 306.976 170.315,312.603 162.710,313.429 161.687 C 314.560 160.286,320.176 153.538,321.761 151.676 C 324.155 148.863,334.906 138.086,339.719 133.674 L 343.585 130.130 343.585 128.341 C 343.585 124.080,339.661 122.871,335.849 125.957 C 332.520 128.652,322.940 137.890,319.433 141.788 C 317.674 143.743,315.507 146.134,314.617 147.100 C 313.728 148.067,312.053 150.044,310.895 151.494 C 309.737 152.944,308.704 154.209,308.599 154.306 C 308.440 154.452,307.290 155.930,304.506 159.564 C 301.540 163.436,299.052 166.874,297.364 169.434 C 296.880 170.167,295.946 171.531,295.288 172.466 C 294.177 174.042,290.330 180.175,288.929 182.601 C 288.595 183.181,287.727 184.663,287.001 185.895 C 285.012 189.270,282.432 194.121,280.435 198.243 C 276.466 206.434,275.220 209.076,275.220 209.297 C 275.220 209.495,273.834 212.899,272.207 216.696 C 271.959 217.276,271.499 218.541,271.185 219.508 C 270.608 221.288,270.119 222.524,269.555 223.633 C 269.384 223.969,269.244 224.564,269.244 224.956 C 269.244 225.348,269.086 225.983,268.893 226.367 C 268.699 226.751,268.383 227.379,268.190 227.763 C 267.996 228.147,267.838 228.708,267.838 229.009 C 267.838 229.335,267.590 229.515,267.223 229.453 C 266.781 229.379,266.577 229.622,266.497 230.316 C 266.307 231.966,267.742 231.640,268.044 229.965 C 268.175 229.240,268.399 228.489,268.543 228.295 C 268.686 228.102,269.157 226.916,269.588 225.659 C 271.004 221.531,272.768 216.727,273.525 214.938 C 273.934 213.972,274.500 212.627,274.782 211.951 C 275.065 211.274,275.516 210.261,275.785 209.700 C 276.054 209.139,276.278 208.427,276.282 208.118 C 276.286 207.810,276.599 207.162,276.977 206.678 C 277.355 206.195,277.668 205.616,277.672 205.393 C 277.677 205.169,279.317 201.768,281.319 197.835 C 285.905 188.823,286.176 188.322,288.935 183.738 C 290.188 181.656,291.518 179.442,291.891 178.817 C 297.097 170.094,309.506 153.412,316.008 146.397 C 316.904 145.431,318.326 143.849,319.169 142.882 C 326.235 134.782,337.585 124.780,339.713 124.780 C 344.006 124.780,344.338 128.831,340.336 132.382 C 331.913 139.856,323.361 148.724,316.140 157.469 C 313.026 161.242,305.992 170.508,305.422 171.590 C 305.185 172.040,304.882 172.487,304.749 172.583 C 303.636 173.391,293.246 190.413,290.266 196.309 C 289.191 198.436,287.856 201.046,287.299 202.109 C 286.741 203.172,285.587 205.624,284.734 207.557 C 283.880 209.490,282.656 212.204,282.013 213.587 C 281.370 214.970,280.844 216.270,280.844 216.476 C 280.844 216.682,280.527 217.414,280.141 218.102 C 279.754 218.790,279.438 219.588,279.438 219.875 C 279.438 220.162,279.298 220.671,279.127 221.007 C 278.956 221.342,278.661 222.012,278.471 222.496 C 278.281 222.979,277.960 223.770,277.757 224.253 C 277.553 224.736,277.310 225.448,277.216 225.835 C 277.122 226.221,276.647 227.645,276.161 228.998 C 275.098 231.962,273.154 238.281,273.080 239.016 C 272.912 240.692,273.018 240.773,275.395 240.773 C 276.684 240.773,277.680 240.620,277.680 240.422 C 277.680 240.228,278.224 240.070,278.890 240.070 C 279.555 240.070,280.197 239.912,280.316 239.719 C 280.436 239.525,280.999 239.367,281.567 239.367 C 282.136 239.367,282.601 239.209,282.601 239.016 C 282.601 238.822,283.471 238.664,284.534 238.664 C 285.598 238.664,286.467 238.506,286.467 238.313 C 286.467 238.120,286.942 237.961,287.522 237.961 C 288.102 237.961,288.576 237.803,288.576 237.610 C 288.576 237.417,289.051 237.258,289.631 237.258 C 290.211 237.258,290.685 237.100,290.685 236.907 C 290.685 236.714,291.318 236.555,292.091 236.555 C 292.865 236.555,293.497 236.397,293.497 236.204 C 293.497 236.011,293.853 235.847,294.288 235.840 C 294.723 235.833,295.475 235.601,295.958 235.325 C 296.441 235.049,297.417 234.817,298.125 234.810 C 298.834 234.803,299.467 234.679,299.531 234.534 C 299.726 234.096,302.655 232.689,303.372 232.689 C 303.741 232.689,304.042 232.531,304.042 232.337 C 304.042 232.144,304.359 231.986,304.745 231.986 C 305.132 231.986,305.448 231.828,305.448 231.634 C 305.448 231.441,305.764 231.283,306.151 231.283 C 306.538 231.283,306.854 231.125,306.854 230.931 C 306.854 230.738,307.329 230.580,307.909 230.580 C 308.489 230.580,308.963 230.422,308.963 230.228 C 308.963 230.035,309.279 229.877,309.666 229.877 C 310.068 229.877,310.369 229.643,310.369 229.329 C 310.369 229.028,310.527 228.879,310.721 228.998 C 310.914 229.118,311.072 229.048,311.072 228.843 C 311.072 228.639,311.433 228.471,311.873 228.471 C 312.314 228.471,312.902 228.155,313.181 227.768 C 313.460 227.381,313.969 227.065,314.313 227.065 C 314.657 227.065,314.938 226.924,314.938 226.753 C 314.938 226.581,315.464 226.342,316.107 226.221 C 316.750 226.100,317.580 225.727,317.952 225.391 C 318.325 225.055,319.240 224.464,319.986 224.077 C 320.732 223.691,321.421 223.177,321.517 222.935 C 321.613 222.693,321.957 222.496,322.280 222.496 C 322.603 222.496,323.096 222.179,323.374 221.793 C 323.653 221.406,324.162 221.090,324.506 221.090 C 324.850 221.090,325.132 220.931,325.132 220.738 C 325.132 220.545,325.409 220.383,325.747 220.379 C 326.085 220.374,326.906 219.742,327.571 218.973 C 328.236 218.204,329.059 217.575,329.399 217.575 C 329.739 217.575,330.144 217.350,330.299 217.076 C 330.453 216.801,330.803 216.525,331.075 216.461 C 331.347 216.397,332.470 215.435,333.570 214.323 C 334.670 213.212,335.760 212.302,335.994 212.302 C 336.341 212.302,339.110 209.636,340.814 207.660 C 341.030 207.410,341.544 206.973,341.956 206.689 C 342.369 206.404,342.707 205.943,342.707 205.663 C 342.707 205.384,342.805 205.253,342.925 205.373 C 343.183 205.632,347.627 201.135,347.627 200.615 C 347.627 200.419,347.968 199.963,348.384 199.602 C 348.800 199.241,349.016 198.946,348.864 198.946 C 348.514 198.946,350.872 196.850,351.230 196.842 C 351.375 196.839,351.494 196.584,351.494 196.275 C 351.494 195.966,351.968 195.269,352.548 194.728 C 353.128 194.186,353.603 193.553,353.603 193.322 C 353.603 193.090,354.077 192.457,354.657 191.916 C 355.237 191.374,355.712 190.747,355.712 190.522 C 355.712 190.297,356.183 189.717,356.758 189.232 C 357.334 188.748,357.780 188.244,357.749 188.113 C 357.657 187.713,358.985 185.237,359.292 185.237 C 359.449 185.237,359.578 184.939,359.578 184.574 C 359.578 184.209,360.051 183.537,360.629 183.080 C 361.267 182.576,361.682 181.920,361.684 181.412 C 361.687 180.626,362.838 179.262,363.498 179.262 C 363.662 179.262,363.796 178.787,363.796 178.207 C 363.796 177.627,364.073 176.848,364.411 176.475 C 365.581 175.187,365.912 174.713,365.836 174.440 C 365.725 174.035,366.827 172.077,367.464 171.548 C 367.766 171.297,368.014 170.806,368.014 170.457 C 368.014 170.107,368.251 169.584,368.541 169.295 C 368.831 169.005,369.069 168.519,369.069 168.215 C 369.069 167.911,369.227 167.663,369.420 167.663 C 369.613 167.663,369.772 167.188,369.772 166.608 C 369.772 166.028,369.930 165.554,370.123 165.554 C 370.316 165.554,370.475 165.237,370.475 164.851 C 370.475 164.464,370.633 164.148,370.826 164.148 C 371.019 164.148,371.178 163.831,371.178 163.445 C 371.178 163.058,371.336 162.742,371.529 162.742 C 371.722 162.742,371.880 162.425,371.880 162.039 C 371.880 161.652,372.009 161.336,372.166 161.336 C 372.324 161.336,372.669 160.782,372.935 160.105 C 373.200 159.429,373.512 158.875,373.627 158.875 C 373.742 158.875,373.872 158.440,373.916 157.909 C 373.960 157.377,374.152 156.889,374.344 156.825 C 374.536 156.760,374.692 156.323,374.692 155.853 C 374.692 154.989,375.309 153.617,375.886 153.199 C 376.059 153.073,376.105 152.722,375.989 152.418 C 375.872 152.114,376.023 151.620,376.323 151.319 C 376.624 151.019,376.782 150.545,376.675 150.266 C 376.568 149.987,376.632 149.665,376.817 149.551 C 377.002 149.437,377.153 149.036,377.153 148.661 C 377.153 148.286,377.311 147.979,377.504 147.979 C 377.698 147.979,377.856 147.504,377.856 146.924 C 377.856 146.344,378.014 145.870,378.207 145.870 C 378.401 145.870,378.559 145.405,378.559 144.836 C 378.559 144.268,378.717 143.705,378.910 143.585 C 379.104 143.466,379.262 143.061,379.262 142.686 C 379.262 142.311,379.420 142.004,379.613 142.004 C 379.807 142.004,379.965 141.282,379.965 140.401 C 379.965 139.422,380.102 138.883,380.316 139.016 C 380.510 139.135,380.668 138.907,380.668 138.509 C 380.668 138.111,380.826 137.786,381.019 137.786 C 381.213 137.786,381.371 137.311,381.371 136.731 C 381.371 136.151,381.529 135.677,381.722 135.677 C 381.916 135.677,382.074 135.044,382.074 134.271 C 382.074 133.497,382.232 132.865,382.425 132.865 C 382.619 132.865,382.777 132.320,382.777 131.655 C 382.777 130.990,382.935 130.348,383.128 130.228 C 383.322 130.109,383.480 129.634,383.480 129.174 C 383.480 128.714,383.647 128.233,383.852 128.107 C 384.067 127.974,384.128 127.440,383.997 126.842 C 383.847 126.158,383.959 125.516,384.327 124.954 C 384.635 124.485,384.886 123.622,384.886 123.035 C 384.886 122.448,385.028 121.968,385.201 121.968 C 385.375 121.968,385.491 121.418,385.459 120.744 C 385.427 120.067,385.590 119.448,385.823 119.358 C 386.116 119.246,386.183 118.600,386.043 117.243 C 385.905 115.898,385.967 115.290,386.243 115.290 C 386.466 115.290,386.643 114.746,386.643 114.060 C 386.643 113.383,386.801 112.830,386.995 112.830 C 387.190 112.830,387.346 111.892,387.346 110.721 C 387.346 109.549,387.502 108.612,387.698 108.612 C 387.901 108.612,388.049 107.499,388.049 105.975 C 388.049 104.452,388.198 103.339,388.401 103.339 C 388.602 103.339,388.752 102.285,388.752 100.879 C 388.752 99.473,388.903 98.418,389.104 98.418 C 389.702 98.418,389.560 88.280,388.953 87.673 C 388.575 87.294,387.428 87.170,384.296 87.170 L 380.141 87.170 380.141 89.895 M186.159 164.691 C 185.964 165.196,186.596 165.905,187.241 165.905 C 187.492 165.905,187.698 165.747,187.698 165.554 C 187.698 165.360,187.856 165.202,188.049 165.202 C 188.243 165.202,188.401 165.427,188.401 165.701 C 188.401 165.980,188.905 166.309,189.543 166.445 C 190.171 166.579,190.844 166.803,191.037 166.943 C 191.230 167.082,192.337 167.568,193.497 168.023 C 196.763 169.303,204.592 173.818,205.624 175.016 C 205.721 175.128,206.828 176.085,208.084 177.143 C 209.341 178.201,210.658 179.387,211.012 179.779 C 211.365 180.171,212.314 181.204,213.122 182.074 C 214.908 183.999,218.109 188.010,219.573 190.158 C 223.621 196.100,230.620 211.248,229.316 211.248 C 229.039 211.248,227.073 209.856,226.186 209.032 C 225.800 208.673,224.297 207.500,222.847 206.425 C 221.397 205.350,219.657 204.046,218.981 203.528 C 215.043 200.512,207.079 195.586,200.325 191.990 C 186.626 184.696,183.727 183.903,181.430 186.824 C 179.386 189.422,180.677 191.835,185.230 193.932 C 189.387 195.846,196.600 199.397,196.837 199.645 C 196.933 199.747,197.882 200.292,198.946 200.857 C 206.830 205.049,217.055 212.082,223.914 218.032 C 229.989 223.303,233.659 226.884,233.885 227.761 C 233.961 228.055,234.218 229.284,234.458 230.492 L 234.894 232.689 236.603 232.689 C 238.022 232.689,238.313 232.580,238.313 232.049 C 238.313 230.267,223.420 216.186,216.696 211.611 C 215.729 210.954,214.859 210.306,214.763 210.171 C 214.581 209.919,203.988 203.002,202.500 202.164 C 200.469 201.020,199.298 200.377,196.661 198.956 C 195.114 198.123,193.691 197.327,193.497 197.188 C 193.304 197.049,191.564 196.217,189.631 195.339 C 187.698 194.461,185.211 193.329,184.104 192.823 C 179.984 190.940,180.513 185.589,184.820 185.589 C 187.403 185.589,204.931 194.688,213.567 200.512 C 215.795 202.015,221.627 206.142,221.793 206.333 C 221.889 206.445,222.522 206.917,223.199 207.381 C 223.875 207.846,224.508 208.320,224.605 208.434 C 224.701 208.548,226.362 209.895,228.295 211.426 C 230.228 212.958,234.114 216.471,236.931 219.232 C 242.082 224.284,243.234 225.040,243.234 223.374 C 243.234 222.891,243.076 222.496,242.882 222.496 C 242.689 222.496,242.531 221.863,242.531 221.090 C 242.531 220.316,242.373 219.684,242.179 219.684 C 241.986 219.684,241.828 219.288,241.828 218.805 C 241.828 218.322,241.670 217.926,241.476 217.926 C 241.283 217.926,241.125 217.135,241.125 216.169 C 241.125 215.202,241.006 214.411,240.861 214.411 C 240.716 214.411,240.573 213.981,240.542 213.455 C 240.512 212.930,240.337 212.450,240.154 212.389 C 239.971 212.328,239.892 211.906,239.979 211.452 C 240.066 210.999,239.963 210.520,239.752 210.390 C 239.540 210.259,239.367 209.608,239.367 208.942 C 239.367 208.277,239.249 207.732,239.104 207.730 C 238.788 207.727,237.961 206.025,237.961 205.378 C 237.961 205.127,237.803 204.921,237.610 204.921 C 237.417 204.921,237.258 204.397,237.258 203.757 C 237.258 203.117,236.982 202.278,236.643 201.894 C 235.704 200.826,235.149 199.733,235.149 198.950 C 235.149 198.561,234.991 198.243,234.798 198.243 C 234.605 198.243,234.446 197.926,234.446 197.540 C 234.446 197.153,234.288 196.837,234.095 196.837 C 233.902 196.837,233.743 196.520,233.743 196.134 C 233.743 195.747,233.585 195.431,233.392 195.431 C 233.199 195.431,233.040 195.193,233.040 194.903 C 233.040 194.613,232.921 194.376,232.775 194.376 C 232.629 194.376,232.161 193.617,231.736 192.690 C 231.310 191.763,230.642 190.635,230.251 190.184 C 229.860 189.733,229.607 189.256,229.690 189.122 C 229.772 188.989,229.531 188.658,229.155 188.387 C 228.779 188.116,228.471 187.681,228.471 187.422 C 228.471 187.162,227.996 186.550,227.417 186.062 C 226.837 185.574,226.357 184.991,226.351 184.767 C 226.337 184.271,225.213 182.992,223.440 181.459 C 222.714 180.830,222.207 180.316,222.314 180.316 C 222.421 180.316,221.938 179.763,221.242 179.086 C 220.545 178.409,219.804 177.856,219.595 177.856 C 219.386 177.856,219.313 177.758,219.433 177.638 C 219.705 177.366,218.818 176.450,218.282 176.450 C 218.064 176.450,217.982 176.292,218.102 176.098 C 218.221 175.905,218.018 175.747,217.650 175.747 C 217.282 175.747,216.694 175.431,216.344 175.044 C 215.995 174.657,215.530 174.341,215.313 174.341 C 215.096 174.341,214.690 174.025,214.411 173.638 C 214.133 173.251,213.623 172.935,213.279 172.935 C 212.935 172.935,212.654 172.788,212.654 172.609 C 212.654 172.234,210.668 171.178,209.964 171.178 C 209.703 171.178,209.490 171.019,209.490 170.826 C 209.490 170.633,209.174 170.475,208.787 170.475 C 208.401 170.475,208.084 170.316,208.084 170.123 C 208.084 169.930,207.768 169.772,207.381 169.772 C 206.995 169.772,206.678 169.613,206.678 169.420 C 206.678 169.227,206.204 169.069,205.624 169.069 C 205.044 169.069,204.569 168.910,204.569 168.717 C 204.569 168.524,204.332 168.366,204.042 168.366 C 203.752 168.366,203.515 168.207,203.515 168.014 C 203.515 167.821,203.120 167.663,202.636 167.663 C 202.153 167.663,201.757 167.530,201.757 167.369 C 201.757 167.207,201.093 167.049,200.281 167.017 C 199.469 166.985,198.646 166.801,198.453 166.608 C 198.260 166.415,197.738 166.257,197.293 166.257 C 196.849 166.257,196.485 166.131,196.485 165.977 C 196.485 165.823,195.892 165.658,195.167 165.610 C 194.442 165.562,193.804 165.396,193.750 165.240 C 193.695 165.085,192.499 165.032,191.092 165.122 C 189.155 165.246,188.411 165.162,188.024 164.775 C 187.403 164.155,186.382 164.108,186.159 164.691 M260.211 266.081 C 260.211 267.144,260.277 267.579,260.357 267.047 C 260.438 266.516,260.438 265.646,260.357 265.114 C 260.277 264.583,260.211 265.018,260.211 266.081 " stroke="none" fill="#93c30c" fill-rule="evenodd"></path></g></svg>